<svg xmlns="http://www.w3.org/2000/svg" width="17.558" height="17.558" viewBox="0 0 17.558 17.558">
  <g id="Group_287" data-name="Group 287" transform="translate(0.75 0.75)">
    <path id="Vector" d="M0,6.423V4.817C0,2.16.8,0,4.817,0S9.635,2.16,9.635,4.817V6.423" transform="translate(3.213)" fill="none" stroke="#225f63" stroke-linecap="round" stroke-linejoin="round" stroke-width="1.5"/>
    <path id="Vector-2" data-name="Vector" d="M12.044,9.635H4.015C.8,9.635,0,8.832,0,5.62V4.015C0,.8.8,0,4.015,0h8.029c3.212,0,4.015.8,4.015,4.015V5.62C16.058,8.832,15.255,9.635,12.044,9.635Z" transform="translate(0 6.423)" fill="none" stroke="#225f63" stroke-linecap="round" stroke-linejoin="round" stroke-width="1.5"/>
    <path id="Vector-3" data-name="Vector" d="M.495.5H.5" transform="translate(10.743 10.741)" fill="none" stroke="#225f63" stroke-linecap="round" stroke-linejoin="round" stroke-width="1.5"/>
    <path id="Vector-4" data-name="Vector" d="M.495.5H.5" transform="translate(7.531 10.741)" fill="none" stroke="#225f63" stroke-linecap="round" stroke-linejoin="round" stroke-width="1.5"/>
    <path id="Vector-5" data-name="Vector" d="M.495.5H.5" transform="translate(4.319 10.741)" fill="none" stroke="#225f63" stroke-linecap="round" stroke-linejoin="round" stroke-width="1.5"/>
  </g>
</svg>
