<svg width="14" height="14" viewBox="0 0 14 14" fill="none" xmlns="http://www.w3.org/2000/svg">
<g clip-path="url(#clip0_18_550)">
<mask id="mask0_18_550" style="mask-type:luminance" maskUnits="userSpaceOnUse" x="3" y="1" width="11" height="8">
<path d="M3.82812 1.94141H13.8879V8.83203H3.82812V1.94141Z" fill="white"/>
</mask>
<g mask="url(#mask0_18_550)">
<path d="M7.26787 8.81852H7.24362C7.16469 8.81157 7.09291 8.77024 7.04719 8.70551L3.87833 4.19434C3.83731 4.13581 3.82118 4.06339 3.83357 3.99311C3.84586 3.92272 3.8857 3.86012 3.94423 3.81911C4.06599 3.73366 4.23402 3.76314 4.31947 3.88501L7.31361 8.13532L13.431 2.00732C13.5377 1.91589 13.6968 1.92208 13.7961 2.02142C13.8955 2.12086 13.9017 2.2799 13.8102 2.38659L7.45609 8.74866C7.40471 8.79544 7.3372 8.82055 7.26778 8.81862L7.26787 8.81852Z" fill="#5D5D5D"/>
</g>
<path d="M0.684962 5.28634C0.597057 5.29051 0.512781 5.25141 0.459163 5.18167C0.405651 5.11202 0.389414 5.02049 0.415905 4.93664C0.749362 3.88112 1.33342 2.92184 2.11805 2.14102C2.90268 1.36011 3.86464 0.780774 4.92188 0.452321C5.06373 0.407781 5.21487 0.486607 5.25952 0.62856C5.30406 0.770405 5.22513 0.921548 5.08328 0.966091C4.11097 1.27029 3.22659 1.80478 2.50529 2.52425C1.78399 3.24363 1.24715 4.12665 0.940486 5.09809C0.905344 5.20981 0.802059 5.28597 0.684992 5.2864L0.684962 5.28634Z" fill="#5D5D5D"/>
<mask id="mask1_18_550" style="mask-type:luminance" maskUnits="userSpaceOnUse" x="0" y="5" width="14" height="9">
<path d="M0.111839 5.74219H13.8359V13.8633H0.111839V5.74219Z" fill="white"/>
</mask>
<g mask="url(#mask1_18_550)">
<path d="M6.97157 13.8597C5.65404 13.8587 4.36462 13.4785 3.25719 12.7646C2.14988 12.0507 1.27125 11.0332 0.726394 9.83361C0.181542 8.63402 -0.00655586 7.30292 0.18444 5.9992C0.206016 5.85062 0.343909 5.74766 0.492495 5.76913C0.64107 5.7907 0.744036 5.9286 0.722462 6.07718C0.676106 6.38256 0.651753 6.69091 0.649831 6.99992C0.649831 8.67653 1.3159 10.2845 2.50141 11.4701C3.68701 12.6557 5.29485 13.3218 6.97157 13.3218C8.64829 13.3218 10.2561 12.6557 11.4417 11.4701C12.6273 10.2846 13.2933 8.67664 13.2933 6.99992C13.2933 6.85135 13.4138 6.73087 13.5624 6.73087C13.7109 6.73087 13.8313 6.85135 13.8313 6.99992C13.8292 8.81861 13.1059 10.562 11.8199 11.848C10.5338 13.1339 8.79017 13.8574 6.97153 13.8595L6.97157 13.8597Z" fill="#5D5D5D"/>
</g>
<path d="M9.85277 1.33987C9.81176 1.34009 9.77128 1.3309 9.73443 1.31296C8.87417 0.892875 7.929 0.675711 6.97162 0.678172C6.66282 0.678492 6.35447 0.700923 6.04898 0.745355C5.97763 0.755716 5.905 0.737345 5.84732 0.694193C5.78954 0.651041 5.7513 0.58674 5.74094 0.515389C5.71936 0.366814 5.82233 0.228909 5.97091 0.207334C6.30245 0.160872 6.63686 0.138335 6.97163 0.140044C8.01102 0.137374 9.03704 0.372893 9.97124 0.828779C10.0842 0.883573 10.1444 1.00918 10.1161 1.13158C10.0878 1.25399 9.97851 1.3404 9.8529 1.33987L9.85277 1.33987Z" fill="#5D5D5D"/>
<path d="M0.684962 5.28634C0.597057 5.29051 0.512781 5.25141 0.459163 5.18167C0.405651 5.11202 0.389414 5.02049 0.415905 4.93664C0.749362 3.88112 1.33342 2.92184 2.11805 2.14102C2.90268 1.36011 3.86464 0.780774 4.92188 0.452321C5.06373 0.407781 5.21487 0.486607 5.25952 0.62856C5.30406 0.770405 5.22513 0.921548 5.08328 0.966091C4.11097 1.27029 3.22659 1.80478 2.50529 2.52425C1.78399 3.24363 1.24715 4.12665 0.940486 5.09809C0.905344 5.20981 0.802059 5.28597 0.684992 5.2864L0.684962 5.28634Z" fill="#5D5D5D"/>
</g>
<defs>
<clipPath id="clip0_18_550">
<rect width="14" height="14" fill="white"/>
</clipPath>
</defs>
</svg>
