<svg id="vuesax_linear_lock" data-name="vuesax/linear/lock" xmlns="http://www.w3.org/2000/svg" width="18" height="18" viewBox="0 0 18 18">
  <g id="lock">
    <path id="Vector" d="M0,6V4.5C0,2.017.75,0,4.5,0S9,2.017,9,4.5V6" transform="translate(4.5 1.5)" fill="none" stroke="#25666c" stroke-linecap="round" stroke-linejoin="round" stroke-width="1.5"/>
    <path id="Vector-2" data-name="Vector" d="M3.75,1.875A1.875,1.875,0,1,1,1.875,0,1.875,1.875,0,0,1,3.75,1.875Z" transform="translate(7.125 10.125)" fill="none" stroke="#25666c" stroke-linecap="round" stroke-linejoin="round" stroke-width="1.5"/>
    <path id="Vector-3" data-name="Vector" d="M11.25,9H3.75C.75,9,0,8.25,0,5.25V3.75C0,.75.75,0,3.75,0h7.5c3,0,3.75.75,3.75,3.75v1.5C15,8.25,14.25,9,11.25,9Z" transform="translate(1.5 7.5)" fill="none" stroke="#25666c" stroke-linecap="round" stroke-linejoin="round" stroke-width="1.5"/>
    <path id="Vector-4" data-name="Vector" d="M0,0H18V18H0Z" transform="translate(18 18) rotate(180)" fill="none" opacity="0"/>
  </g>
</svg>
