<svg xmlns="http://www.w3.org/2000/svg" width="46" height="46" viewBox="0 0 46 46">
  <g id="Group_58820" data-name="Group 58820" transform="translate(-468 -279)">
    <circle id="Ellipse_791" data-name="Ellipse 791" cx="23" cy="23" r="23" transform="translate(468 279)" fill="#24666c"/>
    <g id="user" transform="translate(483.908 293.499)">
      <path id="Path_11473" data-name="Path 11473" d="M91.126,8.19a3.962,3.962,0,0,0,2.9-1.2,3.963,3.963,0,0,0,1.2-2.9,3.963,3.963,0,0,0-1.2-2.9,4.094,4.094,0,0,0-5.791,0,3.962,3.962,0,0,0-1.2,2.9,3.962,3.962,0,0,0,1.2,2.9A3.964,3.964,0,0,0,91.126,8.19ZM88.936,1.9a3.1,3.1,0,0,1,4.382,0,2.961,2.961,0,0,1,.908,2.191,2.96,2.96,0,0,1-.908,2.191,3.1,3.1,0,0,1-4.382,0,2.96,2.96,0,0,1-.908-2.191A2.96,2.96,0,0,1,88.936,1.9Zm0,0" transform="translate(-84.141)" fill="#fff"/>
      <path id="Path_11474" data-name="Path 11474" d="M14.15,252.177a10.114,10.114,0,0,0-.138-1.074,8.464,8.464,0,0,0-.264-1.08,5.336,5.336,0,0,0-.444-1.007,3.8,3.8,0,0,0-.669-.873,2.952,2.952,0,0,0-.962-.6,3.324,3.324,0,0,0-1.228-.222,1.246,1.246,0,0,0-.666.282c-.2.13-.433.281-.693.447a3.972,3.972,0,0,1-.9.4,3.483,3.483,0,0,1-2.194,0,3.961,3.961,0,0,1-.9-.4c-.258-.165-.491-.315-.694-.447a1.245,1.245,0,0,0-.665-.282,3.32,3.32,0,0,0-1.228.222,2.95,2.95,0,0,0-.962.6,3.8,3.8,0,0,0-.669.872,5.345,5.345,0,0,0-.444,1.007,8.484,8.484,0,0,0-.264,1.08,10.045,10.045,0,0,0-.138,1.075c-.023.325-.034.663-.034,1a2.823,2.823,0,0,0,.838,2.136A3.018,3.018,0,0,0,3,256.106h8.186a3.018,3.018,0,0,0,2.16-.788,2.822,2.822,0,0,0,.839-2.136C14.184,252.839,14.173,252.5,14.15,252.177ZM12.659,254.6a2.032,2.032,0,0,1-1.474.514H3a2.032,2.032,0,0,1-1.474-.513A1.844,1.844,0,0,1,1,253.182c0-.319.011-.633.032-.935a9.061,9.061,0,0,1,.125-.968,7.482,7.482,0,0,1,.232-.952,4.352,4.352,0,0,1,.361-.819,2.815,2.815,0,0,1,.492-.645,1.958,1.958,0,0,1,.64-.4,2.293,2.293,0,0,1,.785-.151c.035.019.1.054.2.12.2.133.441.286.7.452a4.936,4.936,0,0,0,1.126.5,4.479,4.479,0,0,0,2.807,0,4.942,4.942,0,0,0,1.127-.5c.267-.171.5-.319.7-.452.1-.066.163-.1.2-.12a2.294,2.294,0,0,1,.785.151,1.961,1.961,0,0,1,.64.4,2.807,2.807,0,0,1,.492.645,4.337,4.337,0,0,1,.362.819,7.465,7.465,0,0,1,.232.952,9.137,9.137,0,0,1,.125.968h0c.021.3.032.615.032.935A1.843,1.843,0,0,1,12.659,254.6Zm0,0" transform="translate(0 -239.104)" fill="#fff"/>
    </g>
  </g>
</svg>
